<svg width="1140" height="1440" viewBox="0 0 1140 1440" fill="none" xmlns="http://www.w3.org/2000/svg">
<g id="humaaans/standing-19">
<g id="Head/Front/Curly">
<g id="Head/Front/Curly_2">
<g id="Head">
<path id="Head_2" fill-rule="evenodd" clip-rule="evenodd" d="M578.746 324.097C599.745 336.707 620.376 342.8 630.061 340.313C654.346 334.076 656.579 245.559 637.788 210.663C618.998 175.768 522.399 160.558 517.53 229.698C515.84 253.694 525.953 275.109 540.895 292.583L514.103 417H591.927L578.746 324.097Z" fill="#CFAE8F"/>
</g>
<path id="hair" fill-rule="evenodd" clip-rule="evenodd" d="M483.601 206.682C481.087 204.201 479.716 200.658 478.53 197.295C477.298 193.8 476.101 190.27 475.283 186.633C473.649 179.367 473.634 171.01 478.837 165.367C483.01 160.842 489.271 158.813 495.049 158.372C498.899 158.078 502.853 158.615 506.543 159.823C510.205 161.023 513.361 163.412 516.911 164.896C517.046 157.065 518.393 148.871 522.38 142.185C526.217 135.751 532.335 132.141 539.302 131.186C546.452 130.206 553.514 131.873 559.915 135.322C561.518 136.186 563.106 137.091 564.625 138.115C565.898 138.973 567.22 140.006 568.713 140.354C570.377 140.744 571.202 139.786 572.284 138.576C573.552 137.158 574.981 135.909 576.493 134.801C583.178 129.905 591.95 127.892 599.695 130.827C603.264 132.179 606.734 134.475 609.155 137.639C611.314 140.46 612.853 144.934 615.832 146.9C617.096 147.734 617.988 146.629 619.139 145.812C620.868 144.584 622.517 143.23 624.266 142.036C626.724 140.359 629.384 139.104 632.234 138.447C636.405 137.485 642.17 137.711 643.362 143.154C643.81 145.199 643.467 147.385 643.322 149.445C643.123 152.274 642.916 155.102 642.67 157.926C642.483 160.071 642.246 162.142 641.84 164.248C641.623 165.371 640.945 167.464 641.428 168.588C642.032 169.993 644.819 169.194 646.009 169.243C648.361 169.34 650.722 169.751 652.897 170.752C654.582 171.528 656.353 172.669 657.064 174.594C657.502 175.776 657.387 176.99 657.18 178.206C656.932 179.666 657.216 180.44 657.401 181.912C660.559 180.363 671.503 176.92 672.88 182.56C673.339 184.437 672.295 186.559 671.498 188.143C670.101 190.92 668.27 193.459 666.397 195.88C662.491 200.931 657.828 205.287 652.811 209.013C658.689 211.616 660.223 219.296 655.134 223.872C652.887 225.892 649.866 226.342 647.031 226.213C645.994 226.165 644.498 225.768 643.682 225.948C643.243 226.045 642.772 226.416 642.164 226.457C638.163 226.73 633.648 225.77 629.737 224.886C622.769 223.31 616.173 220.021 610.786 215.011C609.404 213.726 608.262 212.987 606.402 213.006C604.773 213.022 603.173 213.467 601.545 213.508C597.236 213.618 593.352 211.519 589.351 210.123C589.106 215.508 587.567 221.439 585.356 226.283C583.553 230.234 579.788 230.808 576.088 231.155C564.257 232.264 552.384 231.026 540.538 231.043C552.005 233.625 563.855 234.689 575.22 237.728C580.358 239.102 576.435 242.552 574.238 244.943C570.621 248.881 567.932 253.761 566.066 258.901C560.457 251.616 550.542 246.815 541.757 249.053C532.051 251.526 525.217 264.603 531.423 274.005C535.027 279.463 541.534 281.57 546.948 283.915C542.724 288.29 541.703 294.752 539.16 300.195C537.907 302.88 536.146 305.915 533.342 306.85C532.305 307.197 531.089 307.226 530.27 308.069C529.256 309.112 529.015 310.278 527.72 311.175C522.554 314.754 514.484 314.478 509.904 309.808C505.763 305.584 506.841 298.9 510.299 294.618C504.794 292.332 494.764 289.391 496.952 280.846C485.022 280.057 456.058 260.78 472.069 246.694C463.282 241.746 455.21 229.654 460.854 218.995C465.2 210.787 475.308 207.118 483.601 206.682Z" fill="#191847"/>
</g>
</g>
<g id="Bottom/Standing/Sweatpants">
<path id="Leg" fill-rule="evenodd" clip-rule="evenodd" d="M525 717L634.893 1095.68L686.58 1380H738.46L686.673 717H525Z" fill="#997659"/>
<path id="Leg_2" fill-rule="evenodd" clip-rule="evenodd" d="M475.613 717C483.281 913.723 480.257 1021.02 478.541 1038.89C476.825 1056.77 467.082 1176.47 400.691 1386H454.65C542.574 1184.99 573.267 1065.29 583.351 1038.89C593.435 1012.5 623.218 905.201 666.7 717H475.613Z" fill="#B28B67"/>
<path id="Pant" fill-rule="evenodd" clip-rule="evenodd" d="M522.641 717C551.226 847.305 600.665 1055.31 670.959 1341H746.838C752.443 1047.76 728.601 854.761 687.314 717H522.641Z" fill="#69A1AC"/>
<path id="Pant_2" fill-rule="evenodd" clip-rule="evenodd" d="M475.23 717C482.739 913.723 463.278 1107.53 402.992 1344.06H483.95C572.036 1146.05 635.169 953.201 678.317 717H475.23Z" fill="#89C5CC"/>
<g id="Left Shoe">
<path id="Shoe" fill-rule="evenodd" clip-rule="evenodd" d="M393 1425L395.745 1380.75C395.864 1378.83 397.732 1377.51 399.614 1377.91C425.616 1383.44 461.477 1371 461.477 1371C497.57 1396.57 549.602 1408.3 567.924 1411.81C571.469 1412.49 573.744 1416.07 572.759 1419.54L568.659 1434H461.477H398.955L393 1425Z" fill="#191847"/>
</g>
<g id="Right Shoe">
<path id="Shoe_2" fill-rule="evenodd" clip-rule="evenodd" d="M675 1425L677.745 1380.75C677.864 1378.83 679.732 1377.51 681.614 1377.91C707.616 1383.44 743.477 1371 743.477 1371C779.57 1396.57 831.602 1408.3 849.924 1411.81C853.469 1412.49 855.744 1416.07 854.759 1419.54L850.659 1434H743.477H680.955L675 1425Z" fill="#191847"/>
</g>
</g>
<g id="Body/Long Sleeve 1">
<path id="Skin" fill-rule="evenodd" clip-rule="evenodd" d="M863.544 727.47L771.5 637.654L740.928 690.565L836.643 747.01C860.642 784.825 874.737 801.164 878.929 796.027C882.462 791.696 880.843 786.949 879.351 782.576C878.189 779.17 877.104 775.991 878.594 773.413C881.995 767.526 901.212 770.897 919.311 774.877C937.41 778.856 933.222 769.963 929.376 765.322C912.27 751.514 890.326 738.897 863.544 727.47ZM321.002 857.963C330.524 838.64 362.95 650.321 362.95 650.321L430.851 650.588C430.851 650.588 367.962 853.654 362.95 866.079C356.439 882.22 367.499 905.671 374.999 921.572C376.159 924.032 377.234 926.312 378.146 928.355C367.739 933.013 362.74 927.383 357.47 921.448C351.518 914.744 345.219 907.651 330.392 914.55C324.664 917.216 319.243 920.368 313.947 923.447C295.654 934.083 278.849 943.854 255.988 929.744C252.364 927.507 248.392 919.085 257.988 912.503C281.895 896.106 316.347 867.409 321.002 857.963Z" fill="#B28B67"/>
<path id="Coat Back" fill-rule="evenodd" clip-rule="evenodd" d="M555.914 365.329L584.01 360.509C632.384 481.38 716.839 591.206 837.375 689.988L746.292 800.674C625.77 660.021 551.479 514.907 555.914 365.329Z" fill="#191847"/>
<path id="Shirt" fill-rule="evenodd" clip-rule="evenodd" d="M433.433 718.508H683.626C683.626 718.508 596.68 507.051 596.68 359.248L521.209 348C461.896 443.417 445.146 560.894 433.433 718.508Z" fill="#DDE3E9"/>
<path id="Coat Front" fill-rule="evenodd" clip-rule="evenodd" d="M319.709 825.76C347.071 516.99 519.551 348 519.551 348L519.611 348.053C519.621 348.036 519.631 348.018 519.641 348H524.567C533.41 348.305 551.503 349.097 551.503 349.097L569.74 401.226C572.633 496.561 603.535 785.479 603.535 785.479H439.769C440.047 798.726 440.664 812.16 441.656 825.76H319.709Z" fill="#2F3676"/>
<path id="Shade" fill-rule="evenodd" clip-rule="evenodd" d="M439.797 786.759C438.49 729.072 443.606 674.905 452.141 625.887C456.606 684.052 465.935 754.042 485.421 786.759H439.797Z" fill="black" fill-opacity="0.1"/>
<path id="Light" fill-rule="evenodd" clip-rule="evenodd" d="M476.034 686.007L556.905 648.402V686.007H476.034Z" fill="white" fill-opacity="0.2"/>
</g>
</g>
</svg>